<svg xmlns="http://www.w3.org/2000/svg" viewBox="0 0 512 512">
  <defs/>
  <path fill="#F51F8A" d="M238.991 103.864a7.606 7.606 0 00-7.606 7.606v95.568c-12.042 3.338-20.91 14.389-20.91 27.479 0 15.724 12.793 28.517 28.517 28.517 13.093 0 24.146-8.872 27.481-20.918l51.703-.015a7.606 7.606 0 00-.002-15.212h-.002l-51.704.015c-2.668-9.615-10.254-17.2-19.87-19.865V111.47c0-4.2-3.406-7.606-7.607-7.606zm13.305 130.654c0 7.336-5.968 13.304-13.305 13.304-7.336 0-13.304-5.968-13.304-13.304s5.968-13.305 13.304-13.305c7.337 0 13.305 5.968 13.305 13.305zM368.327 432.073c2.57-16.18-6.486-30.202-23.072-35.723a349.583 349.583 0 01-6.806-2.337v-33.906c6.025 1.297 9.613 4.167 9.912 4.414a7.606 7.606 0 0010.677-.801 7.605 7.605 0 00-.755-10.731c-.437-.38-7.801-6.629-19.834-8.314v-2.546a7.606 7.606 0 00-15.212 0v3.098a48.816 48.816 0 00-3.489.846c-11.281 3.2-19.601 12.408-21.715 24.03-1.868 10.273 1.697 20.144 9.302 25.762 4.03 2.977 9.044 5.705 15.902 8.585v43.125c-6.163-.4-10.369-1.777-17.31-6.053a7.606 7.606 0 10-7.979 12.952c9.863 6.076 16.587 7.874 25.289 8.327v3.394a7.606 7.606 0 0015.212 0v-3.987c17.018-3.236 27.757-16.784 29.878-30.135zm-51.954-48.446c-3.469-2.563-4.017-7.261-3.373-10.803.809-4.445 3.929-9.811 10.237-11.899v26.799c-2.591-1.306-4.932-2.67-6.864-4.097zm36.929 46.059c-1.085 6.829-6.108 14.077-14.853 16.849V410.11c.661.224 1.316.447 2.001.675 9.43 3.138 14.234 10.204 12.852 18.901z"/>
  <path fill="#F51F8A" d="M485.295 296.321H177.779c-12.258 0-22.231 9.973-22.231 22.231v171.217c0 12.258 9.973 22.231 22.231 22.231h307.516c12.258 0 22.231-9.973 22.231-22.231V318.552c0-12.258-9.973-22.231-22.231-22.231zm7.018 193.448c0 3.87-3.149 7.019-7.018 7.019H177.779a7.027 7.027 0 01-7.019-7.019V318.552a7.027 7.027 0 017.019-7.019h307.516a7.026 7.026 0 017.018 7.019z"/>
  <path fill="#F51F8A" d="M295.215 470.313H216.7a63.662 63.662 0 00-19.466-19.395v-93.732a63.677 63.677 0 0019.331-19.18h78.555a7.606 7.606 0 000-15.212h-78.727c-5.111 0-9.788 2.546-12.512 6.812a48.336 48.336 0 01-14.947 14.829c-4.329 2.718-6.913 7.419-6.913 12.577v94.081c0 5.159 2.583 9.859 6.909 12.574a48.324 48.324 0 0115.053 14.997c2.718 4.297 7.408 6.862 12.545 6.862h78.687a7.606 7.606 0 000-15.213zM474.233 344.247a48.374 48.374 0 01-14.634-14.635c-2.728-4.27-7.406-6.818-12.516-6.818h-80.681a7.606 7.606 0 000 15.212h80.507a63.708 63.708 0 0018.93 18.93v94.232a63.671 63.671 0 00-19.065 19.145h-80.191a7.606 7.606 0 000 15.212h80.365c5.137 0 9.829-2.569 12.549-6.869a48.365 48.365 0 0114.74-14.802c4.268-2.726 6.815-7.404 6.815-12.514v-94.578c0-5.108-2.549-9.787-6.819-12.515z"/>
  <path fill="#F51F8A" d="M135.439 381.305a179.492 179.492 0 01-17.953-14.524l8.859-8.859a7.607 7.607 0 00-10.757-10.757l-8.856 8.856c-28.435-31.003-45.379-71.328-47.191-113.897h12.538a7.606 7.606 0 000-15.212H59.531c1.834-43.802 19.423-83.598 47.241-113.856l8.815 8.815c1.485 1.485 3.432 2.228 5.378 2.228s3.893-.743 5.378-2.228a7.605 7.605 0 000-10.757l-8.815-8.815c30.258-27.819 70.054-45.407 113.856-47.242v12.547a7.606 7.606 0 0015.212 0V55.057c43.802 1.834 83.598 19.423 113.856 47.242l-8.816 8.815a7.607 7.607 0 0010.758 10.757l8.815-8.815c27.818 30.258 45.407 70.054 47.241 113.856h-12.547a7.606 7.606 0 000 15.212h12.549a180.504 180.504 0 01-3.331 27.855 7.606 7.606 0 005.963 8.953 7.6 7.6 0 008.952-5.964 196.127 196.127 0 003.799-38.451c0-107.438-87.408-194.846-194.846-194.846S44.143 127.079 44.143 234.517c0 63.179 30.846 122.697 82.513 159.211a7.607 7.607 0 0010.602-1.822 7.602 7.602 0 00-1.819-10.601z"/>
  <path fill="#F51F8A" d="M134.353 427.28C63.624 388.806 19.687 314.943 19.687 234.517c0-121.203 98.085-219.305 219.305-219.305 121.203 0 219.305 98.085 219.305 219.305 0 11.908-.966 23.861-2.871 35.528a7.606 7.606 0 006.281 8.732 7.598 7.598 0 008.733-6.281 236.501 236.501 0 003.069-37.98C473.509 104.907 368.621 0 238.991 0 109.382 0 4.474 104.889 4.474 234.517c0 86.004 46.982 164.987 122.61 206.126a7.606 7.606 0 107.269-13.363z"/>
</svg>
