<svg xmlns="http://www.w3.org/2000/svg" viewBox="0 0 462.69 96.2"><path d="M29.49,99.52V82.38c-.14.15-.48.47-1,1A12.7,12.7,0,0,1,26.21,85a16.81,16.81,0,0,1-3.63,1.51,18,18,0,0,1-5.12.65,16.9,16.9,0,0,1-5.65-1,14.37,14.37,0,0,1-5.15-3.21A16.62,16.62,0,0,1,2.89,77.2a21.85,21.85,0,0,1-1.48-8.5,22.13,22.13,0,0,1,1-6.62,17.9,17.9,0,0,1,3.17-5.94A16.44,16.44,0,0,1,11,51.86,15.92,15.92,0,0,1,18.4,50.2a14.47,14.47,0,0,1,5,.76,15.33,15.33,0,0,1,3.49,1.72A10.29,10.29,0,0,1,29,54.56c.47.6.79,1,.93,1.18l.15-4.25h9.5v48Zm.21-30.74a12.83,12.83,0,0,0-.64-4.14,10.8,10.8,0,0,0-1.8-3.32,8.13,8.13,0,0,0-2.85-2.19,8.61,8.61,0,0,0-3.71-.8,8.26,8.26,0,0,0-3.74.83,8.65,8.65,0,0,0-2.81,2.24,9.89,9.89,0,0,0-1.76,3.31,13.14,13.14,0,0,0-.61,4.07,11.48,11.48,0,0,0,2.34,7.48,7.92,7.92,0,0,0,6.51,2.88,8.22,8.22,0,0,0,6.59-2.91A11.08,11.08,0,0,0,29.7,68.78Z" transform="translate(-1.41 -3.32)" fill="#15549a"/><path d="M69.66,86.13l-.28-4.32a11.61,11.61,0,0,1-.8,1,12.16,12.16,0,0,1-2.08,1.8A15.26,15.26,0,0,1,63,86.34a13.71,13.71,0,0,1-4.9.8q-6,0-9.28-3.32a10.6,10.6,0,0,1-3.1-5.61,37.46,37.46,0,0,1-.58-6.77V51.49H55.26V71a18.58,18.58,0,0,0,.29,3.35A4.87,4.87,0,0,0,56.92,77a6.45,6.45,0,0,0,4.68,1.66,8.58,8.58,0,0,0,2.7-.47,6.23,6.23,0,0,0,2.48-1.55,5.33,5.33,0,0,0,1.55-2.7,24.42,24.42,0,0,0,.47-3.34c0-.53.07-1.06.07-1.59V51.49H79V86.13Z" transform="translate(-1.41 -3.32)" fill="#15549a"/><path d="M95.66,41.92A5.64,5.64,0,0,1,94,45.81,5.47,5.47,0,0,1,90,47.39a5.59,5.59,0,0,1-4.11-1.58,5.58,5.58,0,0,1,0-7.78,6.12,6.12,0,0,1,8.21,0A5.28,5.28,0,0,1,95.66,41.92ZM84.93,86.13V51.49H95V86.13Z" transform="translate(-1.41 -3.32)" fill="#15549a"/><path d="M134.1,79.86c-.09.15-.44.6-1,1.37a13.14,13.14,0,0,1-2.81,2.49,21.83,21.83,0,0,1-4.82,2.41,20.31,20.31,0,0,1-7,1.08,22,22,0,0,1-8.35-1.48,17,17,0,0,1-6-4,16.78,16.78,0,0,1-3.6-5.9,21.16,21.16,0,0,1-1.18-7.1,20.42,20.42,0,0,1,1.18-6.87A17.3,17.3,0,0,1,104,55.89a17,17,0,0,1,6-4.14,21.69,21.69,0,0,1,8.53-1.55,20.2,20.2,0,0,1,6.73,1A21.93,21.93,0,0,1,130,53.44a13.2,13.2,0,0,1,2.81,2.34c.62.74,1,1.19,1.08,1.33L128,62.44c-.14-.14-.46-.44-1-.9a13.67,13.67,0,0,0-4.61-2.66,10.31,10.31,0,0,0-3.42-.55,9,9,0,0,0-4.1.87A8.89,8.89,0,0,0,112,61.54a9.86,9.86,0,0,0-1.76,3.35,13.27,13.27,0,0,0-.58,3.89,13.13,13.13,0,0,0,.58,3.92A9.92,9.92,0,0,0,111.93,76a8.12,8.12,0,0,0,2.88,2.26,9.29,9.29,0,0,0,4.1.83,11.46,11.46,0,0,0,3.64-.54,11.67,11.67,0,0,0,4.64-2.77,14.69,14.69,0,0,0,1-1.08Z" transform="translate(-1.41 -3.32)" fill="#15549a"/><path d="M161.39,86.13,147.78,70.29V86.13H137.7V37.31h10.08V66.18l13.61-14.69h12L157.5,67.91l16.28,18.22Z" transform="translate(-1.41 -3.32)" fill="#15549a"/><path d="M218,86.13V66.4a32.14,32.14,0,0,0-.21-3.78,4.11,4.11,0,0,0-1.44-2.77,5.25,5.25,0,0,0-3.46-1.08,7,7,0,0,0-2.23.36,4.63,4.63,0,0,0-1.87,1.15,4.83,4.83,0,0,0-1.66,3.1,29.8,29.8,0,0,0-.21,3.45v19.3H196.82V66.54a33.24,33.24,0,0,0-.22-3.92,4,4,0,0,0-1.51-2.77,4.2,4.2,0,0,0-1.41-.79,6.06,6.06,0,0,0-2.05-.29,7.07,7.07,0,0,0-2.19.36,4.58,4.58,0,0,0-1.91,1.15,5,5,0,0,0-1.59,3.1,29.8,29.8,0,0,0-.21,3.45v19.3H175.65V51.49h9.5l.14,3.89c.1-.14.39-.49.87-1a12.46,12.46,0,0,1,2-1.76,13,13,0,0,1,3.1-1.66,11.66,11.66,0,0,1,4.28-.72,11.21,11.21,0,0,1,4.39.76,11.81,11.81,0,0,1,3,1.69,6.67,6.67,0,0,1,1.66,1.83c.33.6.55,1,.65,1.12.09-.15.37-.5.82-1.08a9.94,9.94,0,0,1,2.06-1.84A14.72,14.72,0,0,1,211.47,51a13.86,13.86,0,0,1,4.86-.76,13.3,13.3,0,0,1,4.32.76,10.69,10.69,0,0,1,4.1,2.62,10.84,10.84,0,0,1,2.81,5.69,41.46,41.46,0,0,1,.5,6.41V86.13Z" transform="translate(-1.41 -3.32)" fill="#0a2759"/><path d="M257.73,86.13l-.29-4.32a10.44,10.44,0,0,1-.79,1,12.28,12.28,0,0,1-2.09,1.8,15,15,0,0,1-3.46,1.76,13.69,13.69,0,0,1-4.89.8q-6,0-9.29-3.32a10.67,10.67,0,0,1-3.1-5.61,37.5,37.5,0,0,1-.57-6.77V51.49h10.08V71a17.71,17.71,0,0,0,.29,3.35A4.85,4.85,0,0,0,245,77a6.45,6.45,0,0,0,4.68,1.66,8.53,8.53,0,0,0,2.7-.47,6.26,6.26,0,0,0,2.49-1.55,5.39,5.39,0,0,0,1.54-2.7,23,23,0,0,0,.47-3.34c.05-.53.08-1.06.08-1.59V51.49H267V86.13Z" transform="translate(-1.41 -3.32)" fill="#0a2759"/><path d="M300.13,86.13l-.21-4.39c-.1.09-.4.43-.9,1a10.58,10.58,0,0,1-2.27,1.84,17.44,17.44,0,0,1-3.81,1.76,16.62,16.62,0,0,1-5.41.8,17.66,17.66,0,0,1-5.5-.94,14.31,14.31,0,0,1-5.22-3.1,16.39,16.39,0,0,1-3.93-5.72,22.22,22.22,0,0,1-1.55-8.82A21.5,21.5,0,0,1,272.38,62a17.82,17.82,0,0,1,3.17-5.9,16.06,16.06,0,0,1,5.32-4.25,16.33,16.33,0,0,1,7.46-1.62,15.05,15.05,0,0,1,4.53.61,15.29,15.29,0,0,1,3.31,1.44,10.8,10.8,0,0,1,2.16,1.62c.53.53.89.91,1.08,1.15V37.31h10.08V86.13Zm-.5-17.5a11.05,11.05,0,0,0-2.45-7.41,8.16,8.16,0,0,0-6.55-2.89,8.52,8.52,0,0,0-3.74.8,8.16,8.16,0,0,0-2.81,2.19,10.06,10.06,0,0,0-1.77,3.28,13.14,13.14,0,0,0-.61,4,11.57,11.57,0,0,0,2.38,7.63,7.94,7.94,0,0,0,6.48,2.88,8.29,8.29,0,0,0,6.59-2.88A11.3,11.3,0,0,0,299.63,68.63Z" transform="translate(-1.41 -3.32)" fill="#0a2759"/><path d="M339,60c-.29-.05-.63-.08-1-.11s-.84,0-1.37,0a16.53,16.53,0,0,0-3.82.47,8.34,8.34,0,0,0-3.6,1.83,9,9,0,0,0-3.06,4.79,25.13,25.13,0,0,0-.54,5.22v14H315.54V51.49h9.51l.14,6a14.85,14.85,0,0,1,2.3-2.84,15.87,15.87,0,0,1,3-2.31A17.16,17.16,0,0,1,334,50.78a11.84,11.84,0,0,1,3.68-.58h.68a3.44,3.44,0,0,1,.69.07Z" transform="translate(-1.41 -3.32)" fill="#0a2759"/><path d="M363.06,86.13l-.21-3.75a14.34,14.34,0,0,1-1.34,1.3,11,11,0,0,1-2.3,1.51,18.43,18.43,0,0,1-3.28,1.26,15.26,15.26,0,0,1-4.24.54,15.85,15.85,0,0,1-4.58-.65,11.31,11.31,0,0,1-3.88-2,9.81,9.81,0,0,1-2.74-3.42,10.74,10.74,0,0,1-1-4.89,10.25,10.25,0,0,1,.79-4.22,10,10,0,0,1,2-3,13,13,0,0,1,6.12-3.57,28.83,28.83,0,0,1,6.84-.83h7.13v-.71q0-3.32-1.94-4.58a9,9,0,0,0-5-1.26,11.33,11.33,0,0,0-3.64.58,18,18,0,0,0-3,1.3,13.56,13.56,0,0,0-2.13,1.4c-.55.46-.9.76-1,.9l-4.75-5.83a14.18,14.18,0,0,1,1.36-1.34,17.08,17.08,0,0,1,3-2A23.18,23.18,0,0,1,349.74,51,21.31,21.31,0,0,1,356,50.2q8.13,0,12.09,4a11.73,11.73,0,0,1,2.16,2.92,13.75,13.75,0,0,1,1.19,3.27,22.22,22.22,0,0,1,.5,3.68c.08,1.29.11,2.68.11,4.17V86.13Zm-.72-15.27h-5.18a25.26,25.26,0,0,0-2.7.15,9.54,9.54,0,0,0-2.59.61,4.63,4.63,0,0,0-2,1.44,4,4,0,0,0-.8,2.63,3.72,3.72,0,0,0,1.44,3.17,6,6,0,0,0,3.68,1.08,10.3,10.3,0,0,0,3.52-.54,7.4,7.4,0,0,0,2.45-1.48,6.73,6.73,0,0,0,2.16-5.26Z" transform="translate(-1.41 -3.32)" fill="#0a2759"/><path d="M390.86,3.32h66.29a8.71,8.71,0,0,1,7,6.75V56.33c-.62,3.12-2.83,6.11-6.1,6.69-4.53.74-9.12.9-13.68,1.4q-6.12,11.43-12.21,22.89-.62-10.82-1.21-21.62c-12.69,1.16-25.37,2.41-38.07,3.55a7.94,7.94,0,0,1-8.69-7.83q-.11-25.08,0-50.18C384,7.32,387.18,4.14,390.86,3.32ZM415.1,16.26a13.94,13.94,0,0,0-4.39,2c11.55.63,23.15.12,34.72.27a46,46,0,0,0-1.87-6.73,5,5,0,0,0-6.34-2.14C429.83,11.83,422.49,14.14,415.1,16.26Zm-14.68,7.43a4.85,4.85,0,0,0-2.3,4.52c0,7.38-.05,14.77,0,22.15A4.72,4.72,0,0,0,403,55.29q20.06.08,40.13,0a4.72,4.72,0,0,0,4.9-4.89c.07-7.38,0-14.77,0-22.15a4.79,4.79,0,0,0-5-5.22c-12.67-.09-25.33,0-38-.05C403.55,23.08,401.81,22.81,400.42,23.69Z" transform="translate(-1.41 -3.32)" fill="#ff389c"/><path d="M410.64,28.7h24.93a11.22,11.22,0,0,0,6.89,7c0,2.32,0,4.64,0,7a11.7,11.7,0,0,0-7,7c-8.29,0-16.59,0-24.88,0a11.32,11.32,0,0,0-6.9-7c0-2.33,0-4.66,0-7A11.29,11.29,0,0,0,410.64,28.7Zm10.9,4.14c-4.79,1-6.59,7.71-3,11,3.37,3.69,10.26,1.5,10.89-3.45C430.5,35.91,425.92,31.57,421.54,32.84Z" transform="translate(-1.41 -3.32)" fill="#ff389c"/><path d="M415.1,16.26c7.39-2.12,14.73-4.43,22.12-6.57a5,5,0,0,1,6.34,2.14,46,46,0,0,1,1.87,6.73c-11.57-.15-23.17.36-34.72-.27A13.94,13.94,0,0,1,415.1,16.26Z" transform="translate(-1.41 -3.32)" fill="#fff"/><path d="M400.42,23.69c1.39-.88,3.13-.61,4.7-.71,12.66.08,25.32,0,38,.05a4.79,4.79,0,0,1,5,5.22c0,7.38.06,14.77,0,22.15a4.72,4.72,0,0,1-4.9,4.89q-20.07.08-40.13,0a4.72,4.72,0,0,1-4.91-4.93c-.06-7.38-.05-14.77,0-22.15A4.85,4.85,0,0,1,400.42,23.69Zm10.22,5a11.29,11.29,0,0,1-6.9,7c0,2.33,0,4.66,0,7a11.32,11.32,0,0,1,6.9,7c8.29.08,16.59,0,24.88,0a11.7,11.7,0,0,1,7-7c0-2.33,0-4.65,0-7a11.22,11.22,0,0,1-6.89-7Z" transform="translate(-1.41 -3.32)" fill="#fff"/><path d="M421.54,32.84c4.38-1.27,9,3.07,7.91,7.53-.63,5-7.52,7.14-10.89,3.45C415,40.55,416.75,33.8,421.54,32.84Z" transform="translate(-1.41 -3.32)" fill="#fff"/></svg>