<svg xmlns="http://www.w3.org/2000/svg" viewBox="0 0 369.69 83.99">
<path d="M36.8,80.49c-.1.15-.45.6-1,1.37a12.9,12.9,0,0,1-2.81,2.49,21.83,21.83,0,0,1-4.82,2.41,20.23,20.23,0,0,1-7,1.08,22,22,0,0,1-8.35-1.48,16.91,16.91,0,0,1-6-4,16.5,16.5,0,0,1-3.6-5.9A20.92,20.92,0,0,1,2,69.33a20.19,20.19,0,0,1,1.19-6.87A17.28,17.28,0,0,1,6.7,56.52a17,17,0,0,1,6-4.14,21.72,21.72,0,0,1,8.53-1.55,20.26,20.26,0,0,1,6.74,1,22.07,22.07,0,0,1,4.71,2.23,13,13,0,0,1,2.81,2.34c.62.74,1,1.19,1.08,1.33l-5.9,5.33-1-.9a13.4,13.4,0,0,0-1.9-1.4,13.54,13.54,0,0,0-2.7-1.26A10.39,10.39,0,0,0,21.68,59a9,9,0,0,0-4.11.87,8.75,8.75,0,0,0-2.91,2.34,9.88,9.88,0,0,0-1.77,3.35,13.27,13.27,0,0,0-.57,3.89,13.13,13.13,0,0,0,.57,3.92,10.11,10.11,0,0,0,1.73,3.28,8.12,8.12,0,0,0,2.88,2.26,9.29,9.29,0,0,0,4.1.83,11.46,11.46,0,0,0,3.64-.54,11.67,11.67,0,0,0,4.64-2.77,14.69,14.69,0,0,0,1-1.08Z" transform="translate(-1.95 -3.95)" fill="#15549a"/>
<path d="M63.87,60.62c-.29,0-.63-.08-1-.11s-.84,0-1.37,0a16.39,16.39,0,0,0-3.81.47,8.23,8.23,0,0,0-3.6,1.83A8.92,8.92,0,0,0,51,67.57a25.13,25.13,0,0,0-.54,5.22v14H40.4V52.13h9.5l.14,6a15.3,15.3,0,0,1,2.31-2.84,15.8,15.8,0,0,1,3-2.31,17.49,17.49,0,0,1,3.46-1.54,11.78,11.78,0,0,1,3.67-.58h.68a3.37,3.37,0,0,1,.69.07Z" transform="translate(-1.95 -3.95)" fill="#15549a"/>
<path d="M74.59,72.43A8.36,8.36,0,0,0,75,75a6.76,6.76,0,0,0,1.47,2.52,8.17,8.17,0,0,0,2.74,1.91,10.4,10.4,0,0,0,4.21.75,13.26,13.26,0,0,0,4-.54,15.19,15.19,0,0,0,3-1.26,11.71,11.71,0,0,0,2-1.44c.53-.48.89-.81,1.08-1l5.4,5.19a21.88,21.88,0,0,1-6.37,4.79,20.57,20.57,0,0,1-9.47,2,21.34,21.34,0,0,1-8.53-1.55,15.93,15.93,0,0,1-9.18-10,21.94,21.94,0,0,1-1.08-6.84,21.69,21.69,0,0,1,1.08-6.77,17.42,17.42,0,0,1,3.35-6,16.58,16.58,0,0,1,5.79-4.28,19.87,19.87,0,0,1,8.35-1.62c.77,0,1.65.05,2.63.14a15.55,15.55,0,0,1,3,.62A15.32,15.32,0,0,1,91.66,53a14.37,14.37,0,0,1,3,2.34,15.92,15.92,0,0,1,2.85,3.78,18.71,18.71,0,0,1,1.58,4.14,24.28,24.28,0,0,1,.68,4.5c.1,1.56.15,3.14.15,4.72Zm15.56-6.77a9.54,9.54,0,0,0-.29-1.83,8.07,8.07,0,0,0-1.08-2.52,7,7,0,0,0-2.31-2.2,7.44,7.44,0,0,0-4-.94,7.23,7.23,0,0,0-3.92,1,7.9,7.9,0,0,0-2.41,2.23A8,8,0,0,0,75,63.9a8.11,8.11,0,0,0-.32,1.76Z" transform="translate(-1.95 -3.95)" fill="#15549a"/>
<path d="M131.26,86.76,131,82.37c-.09.09-.39.43-.9,1a10.58,10.58,0,0,1-2.27,1.84A17.22,17.22,0,0,1,124.06,87a16.6,16.6,0,0,1-5.4.8,17.72,17.72,0,0,1-5.51-.94,14.31,14.31,0,0,1-5.22-3.1A16.51,16.51,0,0,1,104,78a22,22,0,0,1-1.55-8.82,21.8,21.8,0,0,1,1-6.59,18,18,0,0,1,3.17-5.9A16.1,16.1,0,0,1,112,52.45a16.29,16.29,0,0,1,7.45-1.62,15.12,15.12,0,0,1,4.54.61,15.51,15.51,0,0,1,3.31,1.44,11.41,11.41,0,0,1,2.16,1.62c.53.53.89.91,1.08,1.15V37.94h10.08V86.76Zm-.51-17.5a11,11,0,0,0-2.44-7.41A8.19,8.19,0,0,0,121.75,59a8.52,8.52,0,0,0-3.74.8A8.26,8.26,0,0,0,115.2,62a10,10,0,0,0-1.76,3.28,12.84,12.84,0,0,0-.61,4,11.62,11.62,0,0,0,2.37,7.63,8,8,0,0,0,6.48,2.88,8.27,8.27,0,0,0,6.59-2.88A11.25,11.25,0,0,0,130.75,69.26Z" transform="translate(-1.95 -3.95)" fill="#15549a"/>
<path d="M157.32,42.55a5.64,5.64,0,0,1-1.62,3.89A5.45,5.45,0,0,1,151.63,48a5.57,5.57,0,0,1-4.1-1.58,5.58,5.58,0,0,1,0-7.78,6.12,6.12,0,0,1,8.21,0A5.31,5.31,0,0,1,157.32,42.55ZM146.59,86.76V52.13h10.08V86.76Z" transform="translate(-1.95 -3.95)" fill="#15549a"/>
<path d="M189.36,85.68a9,9,0,0,1-1,.47q-.75.31-2,.72a21.37,21.37,0,0,1-2.95.68,24,24,0,0,1-3.89.29,24.89,24.89,0,0,1-5.62-.61,11.08,11.08,0,0,1-4.46-2.13,9.68,9.68,0,0,1-3.24-4.32,18.74,18.74,0,0,1-.94-6.41V60.19H157.9V52.13h7.41V41.61h10.08V52.13h12.1v8.06h-12.1v11.3c0,1.06.05,2.1.15,3.14a5.54,5.54,0,0,0,1,2.77,4.83,4.83,0,0,0,2,1.51,8.61,8.61,0,0,0,3.24.5A11,11,0,0,0,185,79c1-.29,1.54-.48,1.73-.57Z" transform="translate(-1.95 -3.95)" fill="#15549a"/>
<path d="M234.65,86.76V67a30.05,30.05,0,0,0-.22-3.78A4,4,0,0,0,233,60.48a5.2,5.2,0,0,0-3.45-1.08,7,7,0,0,0-2.23.36,4.67,4.67,0,0,0-1.88,1.15,4.82,4.82,0,0,0-1.65,3.1,27.8,27.8,0,0,0-.22,3.45v19.3H213.48V67.17a33.37,33.37,0,0,0-.21-3.92,4,4,0,0,0-1.52-2.77,4.06,4.06,0,0,0-1.4-.79,6.1,6.1,0,0,0-2-.29,7.13,7.13,0,0,0-2.2.36,4.71,4.71,0,0,0-1.91,1.15,5,5,0,0,0-1.58,3.1,29.88,29.88,0,0,0-.22,3.45v19.3H192.31V52.13h9.51L202,56c.1-.14.38-.49.86-1a12.46,12.46,0,0,1,2-1.76,13.24,13.24,0,0,1,3.1-1.66,11.68,11.68,0,0,1,4.29-.72,11.25,11.25,0,0,1,4.39.76,11.81,11.81,0,0,1,2.95,1.69,6.67,6.67,0,0,1,1.66,1.83c.33.6.55,1,.64,1.12.1-.15.37-.5.83-1.08a10.12,10.12,0,0,1,2.05-1.84,14.92,14.92,0,0,1,3.42-1.72,13.93,13.93,0,0,1,4.86-.76,13.3,13.3,0,0,1,4.32.76,10.65,10.65,0,0,1,4.11,2.62,10.91,10.91,0,0,1,2.81,5.69,41.46,41.46,0,0,1,.5,6.41V86.76Z" transform="translate(-1.95 -3.95)" fill="#0a2759"/>
<path d="M258.91,72.43a8.36,8.36,0,0,0,.44,2.52,6.62,6.62,0,0,0,1.47,2.52,8.17,8.17,0,0,0,2.74,1.91,10.37,10.37,0,0,0,4.21.75,13.26,13.26,0,0,0,4-.54,15.19,15.19,0,0,0,3-1.26,11.71,11.71,0,0,0,2-1.44c.53-.48.89-.81,1.08-1l5.4,5.19a22,22,0,0,1-6.37,4.79,20.57,20.57,0,0,1-9.47,2,21.34,21.34,0,0,1-8.53-1.55,15.86,15.86,0,0,1-9.18-10,21.94,21.94,0,0,1-1.08-6.84,21.69,21.69,0,0,1,1.08-6.77,17.56,17.56,0,0,1,3.34-6,16.71,16.71,0,0,1,5.8-4.28,19.87,19.87,0,0,1,8.35-1.62c.77,0,1.65.05,2.63.14a15.7,15.7,0,0,1,3,.62A15.32,15.32,0,0,1,276,53a14.37,14.37,0,0,1,3,2.34,15.92,15.92,0,0,1,2.85,3.78,18.71,18.71,0,0,1,1.58,4.14,24.28,24.28,0,0,1,.68,4.5c.1,1.56.15,3.14.15,4.72Zm15.55-6.77a9.32,9.32,0,0,0-.28-1.83,8.56,8.56,0,0,0-1.08-2.52,7,7,0,0,0-2.31-2.2,7.49,7.49,0,0,0-4-.94,7.23,7.23,0,0,0-3.92,1,7.9,7.9,0,0,0-2.41,2.23,8,8,0,0,0-1.19,2.52,8.11,8.11,0,0,0-.32,1.76Z" transform="translate(-1.95 -3.95)" fill="#0a2759"/>
<path d="M298.4,4h66.29a8.71,8.71,0,0,1,6.95,6.75V57c-.62,3.12-2.83,6.11-6.1,6.69-4.53.74-9.12.9-13.68,1.4q-6.12,11.43-12.21,22.89-.61-10.81-1.21-21.62c-12.69,1.16-25.37,2.41-38.07,3.55A7.94,7.94,0,0,1,291.68,62q-.1-25.08,0-50.18C291.58,8,294.72,4.77,298.4,4Zm24.24,12.94a13.94,13.94,0,0,0-4.39,2c11.55.63,23.15.12,34.72.27a46,46,0,0,0-1.87-6.73,5,5,0,0,0-6.34-2.14C337.37,12.46,330,14.77,322.64,16.89ZM308,24.32a4.85,4.85,0,0,0-2.3,4.52c0,7.38-.05,14.77,0,22.15a4.72,4.72,0,0,0,4.91,4.93q20.06.07,40.13,0a4.72,4.72,0,0,0,4.9-4.89c.07-7.38,0-14.77,0-22.15a4.79,4.79,0,0,0-5-5.22c-12.67-.09-25.33,0-38-.05C311.09,23.71,309.35,23.44,308,24.32Z" transform="translate(-1.95 -3.95)" fill="#ff389c"/>
<path d="M318.18,29.33h24.93a11.22,11.22,0,0,0,6.89,7c0,2.32,0,4.64,0,7a11.7,11.7,0,0,0-7,7c-8.29,0-16.59,0-24.88,0a11.32,11.32,0,0,0-6.9-6.95c0-2.33,0-4.66,0-7A11.29,11.29,0,0,0,318.18,29.33Zm10.9,4.14c-4.79,1-6.59,7.71-3,11C329.47,48.14,336.36,46,337,41,338,36.54,333.46,32.2,329.08,33.47Z" transform="translate(-1.95 -3.95)" fill="#ff389c"/>
<path d="M322.64,16.89c7.39-2.12,14.73-4.43,22.12-6.57a5,5,0,0,1,6.34,2.14A46,46,0,0,1,353,19.19c-11.57-.15-23.17.36-34.72-.27A13.94,13.94,0,0,1,322.64,16.89Z" transform="translate(-1.95 -3.95)" fill="#fff"/>
<path d="M308,24.32c1.39-.88,3.13-.61,4.7-.71,12.66.08,25.32,0,38,.05a4.79,4.79,0,0,1,5,5.22c0,7.38.06,14.77,0,22.15a4.72,4.72,0,0,1-4.9,4.89q-20.07.07-40.13,0A4.72,4.72,0,0,1,305.67,51c-.06-7.38-.05-14.77,0-22.15A4.85,4.85,0,0,1,308,24.32Zm10.22,5a11.29,11.29,0,0,1-6.9,7c0,2.33,0,4.66,0,7a11.32,11.32,0,0,1,6.9,6.95c8.29.08,16.59,0,24.88,0a11.7,11.7,0,0,1,7-7c0-2.33,0-4.65,0-7a11.22,11.22,0,0,1-6.89-7Z" transform="translate(-1.95 -3.95)" fill="#fff"/>
<path d="M329.08,33.47c4.38-1.27,9,3.07,7.91,7.53-.63,5-7.52,7.14-10.89,3.45C322.49,41.18,324.29,34.43,329.08,33.47Z" transform="translate(-1.95 -3.95)" fill="#fff"/>
</svg>