<svg xmlns="http://www.w3.org/2000/svg" viewBox="0 0 480 480" width="40">
  <defs/>
  <path fill="#0099FA" d="M440 144h-88v-40c0-.176-.09-.328-.105-.504a7.522 7.522 0 00-.407-2.055c-.09-.257-.152-.504-.265-.754a7.947 7.947 0 00-1.598-2.343l-96-96a8.046 8.046 0 00-2.352-1.602c-.242-.101-.472-.168-.722-.254a7.927 7.927 0 00-2.11-.418c-.129.02-.273-.07-.441-.07H40C17.918.027.027 17.918 0 40v368c.027 22.082 17.918 39.973 40 40h168.8c3.829 18.613 20.2 31.977 39.2 32h192c22.082-.027 39.973-17.918 40-40V184c-.027-22.082-17.918-39.973-40-40zM324.687 96H264a8 8 0 01-8-8V27.312zM16 408V40c0-13.254 10.746-24 24-24h200v72c0 13.254 10.746 24 24 24h72v32h-88c-22.082.027-39.973 17.918-40 40v248H40c-13.254 0-24-10.746-24-24zm448 32c0 13.254-10.746 24-24 24H248c-13.254 0-24-10.746-24-24V184c0-13.254 10.746-24 24-24h192c13.254 0 24 10.746 24 24zm0 0"/>
  <path fill="#0099FA" d="M408 176H280c-22.082.027-39.973 17.918-40 40v32c.027 22.082 17.918 39.973 40 40h128c22.082-.027 39.973-17.918 40-40v-32c-.027-22.082-17.918-39.973-40-40zm24 72c0 13.254-10.746 24-24 24H280c-13.254 0-24-10.746-24-24v-32c0-13.254 10.746-24 24-24h128c13.254 0 24 10.746 24 24zm0 0M272 304c-17.672 0-32 14.328-32 32s14.328 32 32 32 32-14.328 32-32-14.328-32-32-32zm0 48c-8.836 0-16-7.164-16-16s7.164-16 16-16 16 7.164 16 16-7.164 16-16 16zm0 0M344 304c-17.672 0-32 14.328-32 32s14.328 32 32 32 32-14.328 32-32-14.328-32-32-32zm0 48c-8.836 0-16-7.164-16-16s7.164-16 16-16 16 7.164 16 16-7.164 16-16 16zm0 0M272 384c-17.672 0-32 14.328-32 32s14.328 32 32 32 32-14.328 32-32-14.328-32-32-32zm0 48c-8.836 0-16-7.164-16-16s7.164-16 16-16 16 7.164 16 16-7.164 16-16 16zm0 0M344 384c-17.672 0-32 14.328-32 32s14.328 32 32 32 32-14.328 32-32-14.328-32-32-32zm0 48c-8.836 0-16-7.164-16-16s7.164-16 16-16 16 7.164 16 16-7.164 16-16 16zm0 0M416 304c-17.672 0-32 14.328-32 32v80c0 17.672 14.328 32 32 32s32-14.328 32-32v-80c0-17.672-14.328-32-32-32zm16 112c0 8.836-7.164 16-16 16s-16-7.164-16-16v-80c0-8.836 7.164-16 16-16s16 7.164 16 16zm0 0M82.344 141.656a8.004 8.004 0 0011.312 0l72-72a8 8 0 00-11.312-11.312l-72 72a8.004 8.004 0 000 11.312zm0 0M128 128c0 13.254 10.746 24 24 24s24-10.746 24-24-10.746-24-24-24-24 10.746-24 24zm32 0a8 8 0 11-16 0 8 8 0 0116 0zm0 0M96 96c13.254 0 24-10.746 24-24s-10.746-24-24-24-24 10.746-24 24 10.746 24 24 24zm0-32a8 8 0 110 16 8 8 0 010-16zm0 0M56 216h96a8 8 0 000-16H56a8 8 0 000 16zm0 0M168 232H56a8 8 0 000 16h112a8 8 0 000-16zm0 0M88 264H56a8 8 0 000 16h32a8 8 0 000-16zm0 0M168 264h-48a8 8 0 000 16h48a8 8 0 000-16zm0 0"/>
</svg>
